<svg xmlns="http://www.w3.org/2000/svg" width="481.383" height="283.207" viewBox="0 0 481.383 283.207">
  <g id="loginpageimg" transform="translate(-4 -0.04)" style="isolation: isolate">
    <path id="Path_62" data-name="Path 62" d="M509.382,323.134a90.518,90.518,0,0,1-2.882,22.754,86.615,86.615,0,0,1-8.109,20.314c0,22.984-14.231,42.848-34.888,52.3a65.37,65.37,0,0,1-27.238,5.872H119.382a82.49,82.49,0,0,1-45.5-13.469A78.744,78.744,0,0,1,63.43,402.7c-14.307-13.4-23.177-31.929-23.177-52.39A88.307,88.307,0,0,1,28,305.017c0-33.654,18.258-62.592,44.414-75.369a69.544,69.544,0,0,1,10.734-4.184q1.948-.578,3.939-1.037a68.063,68.063,0,0,1,10.734-1.606q1.957-.133,3.934-.151h.724c1.456,0,2.9.055,4.334.147l.471-.872q.867-1.578,1.776-3.124,1.641-2.817,3.442-5.551,1.885-2.886,3.934-5.679l.349-.459q1.161-1.578,2.373-3.12,3.787-4.812,7.995-9.336c30.343-32.425,77.88-53.3,131.32-53.3,41.582,0,79.592,12.639,108.707,33.521a68.639,68.639,0,0,1,36.163-10.363c41.128,0,74.48,36.87,74.48,82.351q-.009,4.317-.421,8.615C497.521,271.031,509.451,296.26,509.382,323.134Z" transform="translate(-24 -141.34)" fill="#fcfcfc"/>
    <path id="Path_63" data-name="Path 63" d="M252.655,257.52v9.336H244.66Q248.418,262.048,252.655,257.52Z" transform="translate(-153.24 -204.2)" fill="#6c63ff" opacity="0.2"/>
    <rect id="Rectangle_11" data-name="Rectangle 11" width="10.734" height="11.703" transform="translate(103.353 50.952)" fill="#6c63ff" opacity="0.2"/>
    <rect id="Rectangle_12" data-name="Rectangle 12" width="10.734" height="11.703" transform="translate(118.022 50.952)" fill="#6c63ff" opacity="0.2"/>
    <rect id="Rectangle_13" data-name="Rectangle 13" width="10.734" height="11.703" transform="translate(132.695 50.952)" fill="#6c63ff" opacity="0.2"/>
    <rect id="Rectangle_14" data-name="Rectangle 14" width="10.734" height="11.703" transform="translate(147.364 50.952)" fill="#6c63ff" opacity="0.2"/>
    <rect id="Rectangle_15" data-name="Rectangle 15" width="10.734" height="11.703" transform="translate(162.037 50.952)" fill="#6c63ff" opacity="0.2"/>
    <rect id="Rectangle_16" data-name="Rectangle 16" width="10.734" height="11.703" transform="translate(176.71 50.952)" fill="#6c63ff"/>
    <rect id="Rectangle_17" data-name="Rectangle 17" width="10.734" height="11.703" transform="translate(191.378 50.952)" fill="#6c63ff" opacity="0.2"/>
    <rect id="Rectangle_18" data-name="Rectangle 18" width="10.734" height="11.703" transform="translate(206.051 50.952)" fill="#6c63ff" opacity="0.2"/>
    <rect id="Rectangle_19" data-name="Rectangle 19" width="10.734" height="11.703" transform="translate(220.72 50.952)" fill="#6c63ff" opacity="0.2"/>
    <rect id="Rectangle_20" data-name="Rectangle 20" width="10.734" height="11.703" transform="translate(235.393 50.952)" fill="#6c63ff"/>
    <rect id="Rectangle_21" data-name="Rectangle 21" width="10.734" height="11.703" transform="translate(250.066 50.952)" fill="#6c63ff" opacity="0.2"/>
    <rect id="Rectangle_22" data-name="Rectangle 22" width="10.734" height="11.703" transform="translate(264.734 50.952)" fill="#6c63ff" opacity="0.2"/>
    <rect id="Rectangle_23" data-name="Rectangle 23" width="10.734" height="11.703" transform="translate(279.407 50.952)" fill="#6c63ff" opacity="0.2"/>
    <rect id="Rectangle_24" data-name="Rectangle 24" width="10.734" height="11.703" transform="translate(294.08 50.952)" fill="#6c63ff" opacity="0.2"/>
    <rect id="Rectangle_25" data-name="Rectangle 25" width="10.734" height="11.703" transform="translate(308.749 50.952)" fill="#6c63ff" opacity="0.2"/>
    <rect id="Rectangle_26" data-name="Rectangle 26" width="10.734" height="11.703" transform="translate(323.422 50.952)" fill="#6c63ff" opacity="0.2"/>
    <rect id="Rectangle_27" data-name="Rectangle 27" width="10.734" height="11.703" transform="translate(338.09 50.952)" fill="#6c63ff"/>
    <rect id="Rectangle_28" data-name="Rectangle 28" width="10.734" height="11.703" transform="translate(352.763 50.952)" fill="#6c63ff"/>
    <rect id="Rectangle_29" data-name="Rectangle 29" width="10.734" height="11.703" transform="translate(367.436 50.952)" fill="#6c63ff" opacity="0.2"/>
    <rect id="Rectangle_30" data-name="Rectangle 30" width="10.734" height="11.703" transform="translate(382.105 50.952)" fill="#6c63ff" opacity="0.2"/>
    <rect id="Rectangle_31" data-name="Rectangle 31" width="10.734" height="11.703" transform="translate(396.778 50.952)" fill="#6c63ff"/>
    <rect id="Rectangle_32" data-name="Rectangle 32" width="10.734" height="11.703" transform="translate(411.447 50.952)" fill="#6c63ff"/>
    <path id="Path_64" data-name="Path 64" d="M224.062,298.08v5.551H220.62Q222.261,300.8,224.062,298.08Z" transform="translate(-139.316 -226.153)" fill="#6c63ff"/>
    <rect id="Rectangle_33" data-name="Rectangle 33" width="10.734" height="11.703" transform="translate(88.68 65.775)" fill="#6c63ff" opacity="0.2"/>
    <rect id="Rectangle_34" data-name="Rectangle 34" width="10.734" height="11.703" transform="translate(103.353 65.775)" fill="#6c63ff"/>
    <rect id="Rectangle_35" data-name="Rectangle 35" width="10.734" height="11.703" transform="translate(118.022 65.775)" fill="#6c63ff" opacity="0.2"/>
    <rect id="Rectangle_36" data-name="Rectangle 36" width="10.734" height="11.703" transform="translate(132.695 65.775)" fill="#6c63ff" opacity="0.7"/>
    <rect id="Rectangle_37" data-name="Rectangle 37" width="10.734" height="11.703" transform="translate(147.364 65.775)" fill="#6c63ff" opacity="0.2"/>
    <rect id="Rectangle_38" data-name="Rectangle 38" width="10.734" height="11.703" transform="translate(162.037 65.775)" fill="#6c63ff" opacity="0.4"/>
    <rect id="Rectangle_39" data-name="Rectangle 39" width="10.734" height="11.703" transform="translate(176.71 65.775)" fill="#6c63ff"/>
    <rect id="Rectangle_40" data-name="Rectangle 40" width="10.734" height="11.703" transform="translate(191.378 65.775)" fill="#6c63ff" opacity="0.4"/>
    <rect id="Rectangle_41" data-name="Rectangle 41" width="10.734" height="11.703" transform="translate(206.051 65.775)" fill="#6c63ff" opacity="0.2"/>
    <rect id="Rectangle_42" data-name="Rectangle 42" width="10.734" height="11.703" transform="translate(220.72 65.775)" fill="#6c63ff" opacity="0.4"/>
    <rect id="Rectangle_43" data-name="Rectangle 43" width="10.734" height="11.703" transform="translate(235.393 65.775)" fill="#6c63ff"/>
    <rect id="Rectangle_44" data-name="Rectangle 44" width="10.734" height="11.703" transform="translate(250.066 65.775)" fill="#6c63ff" opacity="0.4"/>
    <rect id="Rectangle_45" data-name="Rectangle 45" width="10.734" height="11.703" transform="translate(264.734 65.775)" fill="#6c63ff" opacity="0.4"/>
    <rect id="Rectangle_46" data-name="Rectangle 46" width="10.734" height="11.703" transform="translate(279.407 65.775)" fill="#6c63ff" opacity="0.2"/>
    <rect id="Rectangle_47" data-name="Rectangle 47" width="10.734" height="11.703" transform="translate(294.08 65.775)" fill="#6c63ff" opacity="0.4"/>
    <rect id="Rectangle_48" data-name="Rectangle 48" width="10.734" height="11.703" transform="translate(308.749 65.775)" fill="#6c63ff" opacity="0.4"/>
    <rect id="Rectangle_49" data-name="Rectangle 49" width="10.734" height="11.703" transform="translate(323.422 65.775)" fill="#6c63ff" opacity="0.2"/>
    <rect id="Rectangle_50" data-name="Rectangle 50" width="10.734" height="11.703" transform="translate(338.09 65.775)" fill="#6c63ff" opacity="0.2"/>
    <rect id="Rectangle_51" data-name="Rectangle 51" width="10.734" height="11.703" transform="translate(352.763 65.775)" fill="#6c63ff" opacity="0.4"/>
    <rect id="Rectangle_52" data-name="Rectangle 52" width="10.734" height="11.703" transform="translate(367.436 65.775)" fill="#6c63ff" opacity="0.2"/>
    <rect id="Rectangle_53" data-name="Rectangle 53" width="10.734" height="11.703" transform="translate(382.105 65.775)" fill="#6c63ff"/>
    <rect id="Rectangle_54" data-name="Rectangle 54" width="10.734" height="11.703" transform="translate(396.778 65.775)" fill="#6c63ff"/>
    <rect id="Rectangle_55" data-name="Rectangle 55" width="10.734" height="11.703" transform="translate(411.447 65.775)" fill="#6c63ff"/>
    <path id="Path_65" data-name="Path 65" d="M144.284,324.67v8.18H133.55v-4a69.537,69.537,0,0,1,10.734-4.184Z" transform="translate(-88.884 -240.545)" fill="#6c63ff" opacity="0.2"/>
    <path id="Path_66" data-name="Path 66" d="M151.154,177.57v10.822H140.42v-9.216Z" transform="translate(-81.081 -96.087)" fill="#6c63ff" opacity="0.2"/>
    <rect id="Rectangle_56" data-name="Rectangle 56" width="10.734" height="11.703" transform="translate(74.008 80.602)" fill="#6c63ff"/>
    <rect id="Rectangle_57" data-name="Rectangle 57" width="10.734" height="11.703" transform="translate(88.68 80.602)" fill="#6c63ff" opacity="0.7"/>
    <rect id="Rectangle_58" data-name="Rectangle 58" width="10.734" height="11.703" transform="translate(103.353 80.602)" fill="#6c63ff"/>
    <rect id="Rectangle_59" data-name="Rectangle 59" width="10.734" height="11.703" transform="translate(118.022 80.602)" fill="#6c63ff" opacity="0.7"/>
    <rect id="Rectangle_60" data-name="Rectangle 60" width="10.734" height="11.703" transform="translate(132.695 80.602)" fill="#6c63ff" opacity="0.7"/>
    <rect id="Rectangle_61" data-name="Rectangle 61" width="10.734" height="11.703" transform="translate(147.364 80.602)" fill="#6c63ff" opacity="0.2"/>
    <rect id="Rectangle_62" data-name="Rectangle 62" width="10.734" height="11.703" transform="translate(162.037 80.602)" fill="#6c63ff" opacity="0.4"/>
    <rect id="Rectangle_63" data-name="Rectangle 63" width="10.734" height="11.703" transform="translate(176.71 80.602)" fill="#6c63ff" opacity="0.4"/>
    <rect id="Rectangle_64" data-name="Rectangle 64" width="10.734" height="11.703" transform="translate(191.378 80.602)" fill="#6c63ff"/>
    <rect id="Rectangle_65" data-name="Rectangle 65" width="10.734" height="11.703" transform="translate(206.051 80.602)" fill="#6c63ff" opacity="0.2"/>
    <rect id="Rectangle_66" data-name="Rectangle 66" width="10.734" height="11.703" transform="translate(220.72 80.602)" fill="#6c63ff" opacity="0.4"/>
    <rect id="Rectangle_67" data-name="Rectangle 67" width="10.734" height="11.703" transform="translate(235.393 80.602)" fill="#6c63ff"/>
    <rect id="Rectangle_68" data-name="Rectangle 68" width="10.734" height="11.703" transform="translate(250.066 80.602)" fill="#6c63ff" opacity="0.2"/>
    <rect id="Rectangle_69" data-name="Rectangle 69" width="10.734" height="11.703" transform="translate(264.734 80.602)" fill="#6c63ff" opacity="0.4"/>
    <rect id="Rectangle_70" data-name="Rectangle 70" width="10.734" height="11.703" transform="translate(279.407 80.602)" fill="#6c63ff" opacity="0.2"/>
    <rect id="Rectangle_71" data-name="Rectangle 71" width="10.734" height="11.703" transform="translate(294.08 80.602)" fill="#6c63ff"/>
    <rect id="Rectangle_72" data-name="Rectangle 72" width="10.734" height="11.703" transform="translate(308.749 80.602)" fill="#6c63ff" opacity="0.2"/>
    <rect id="Rectangle_73" data-name="Rectangle 73" width="10.734" height="11.703" transform="translate(323.422 80.602)" fill="#6c63ff" opacity="0.7"/>
    <rect id="Rectangle_74" data-name="Rectangle 74" width="10.734" height="11.703" transform="translate(338.09 80.602)" fill="#6c63ff" opacity="0.7"/>
    <rect id="Rectangle_75" data-name="Rectangle 75" width="10.734" height="11.703" transform="translate(352.763 80.602)" fill="#6c63ff" opacity="0.4"/>
    <rect id="Rectangle_76" data-name="Rectangle 76" width="10.734" height="11.703" transform="translate(367.436 80.602)" fill="#6c63ff" opacity="0.2"/>
    <rect id="Rectangle_77" data-name="Rectangle 77" width="10.734" height="11.703" transform="translate(382.105 80.602)" fill="#6c63ff"/>
    <rect id="Rectangle_78" data-name="Rectangle 78" width="10.734" height="11.703" transform="translate(396.778 80.602)" fill="#6c63ff"/>
    <rect id="Rectangle_79" data-name="Rectangle 79" width="10.734" height="11.703" transform="translate(411.447 80.602)" fill="#6c63ff"/>
    <rect id="Rectangle_80" data-name="Rectangle 80" width="10.734" height="11.703" transform="translate(44.666 95.424)" fill="#6c63ff" opacity="0.2"/>
    <rect id="Rectangle_81" data-name="Rectangle 81" width="10.734" height="11.703" transform="translate(59.339 95.424)" fill="#6c63ff" opacity="0.2"/>
    <rect id="Rectangle_82" data-name="Rectangle 82" width="10.734" height="11.703" transform="translate(74.008 95.424)" fill="#6c63ff" opacity="0.2"/>
    <rect id="Rectangle_83" data-name="Rectangle 83" width="10.734" height="11.703" transform="translate(88.68 95.424)" fill="#6c63ff" opacity="0.2"/>
    <rect id="Rectangle_84" data-name="Rectangle 84" width="10.734" height="11.703" transform="translate(103.353 95.424)" fill="#6c63ff"/>
    <rect id="Rectangle_85" data-name="Rectangle 85" width="10.734" height="11.703" transform="translate(118.022 95.424)" fill="#6c63ff" opacity="0.7"/>
    <rect id="Rectangle_86" data-name="Rectangle 86" width="10.734" height="11.703" transform="translate(132.695 95.424)" fill="#6c63ff" opacity="0.7"/>
    <rect id="Rectangle_87" data-name="Rectangle 87" width="10.734" height="11.703" transform="translate(147.364 95.424)" fill="#6c63ff" opacity="0.2"/>
    <rect id="Rectangle_88" data-name="Rectangle 88" width="10.734" height="11.703" transform="translate(162.037 95.424)" fill="#6c63ff" opacity="0.2"/>
    <rect id="Rectangle_89" data-name="Rectangle 89" width="10.734" height="11.703" transform="translate(176.71 95.424)" fill="#6c63ff" opacity="0.4"/>
    <rect id="Rectangle_90" data-name="Rectangle 90" width="10.734" height="11.703" transform="translate(191.378 95.424)" fill="#6c63ff" opacity="0.4"/>
    <rect id="Rectangle_91" data-name="Rectangle 91" width="10.734" height="11.703" transform="translate(206.051 95.424)" fill="#6c63ff"/>
    <rect id="Rectangle_92" data-name="Rectangle 92" width="10.734" height="11.703" transform="translate(220.72 95.424)" fill="#6c63ff" opacity="0.2"/>
    <rect id="Rectangle_93" data-name="Rectangle 93" width="10.734" height="11.703" transform="translate(235.393 95.424)" fill="#6c63ff" opacity="0.4"/>
    <rect id="Rectangle_94" data-name="Rectangle 94" width="10.734" height="11.703" transform="translate(250.066 95.424)" fill="#6c63ff" opacity="0.4"/>
    <rect id="Rectangle_95" data-name="Rectangle 95" width="10.734" height="11.703" transform="translate(264.734 95.424)" fill="#6c63ff" opacity="0.4"/>
    <rect id="Rectangle_96" data-name="Rectangle 96" width="10.734" height="11.703" transform="translate(279.407 95.424)" fill="#6c63ff" opacity="0.4"/>
    <rect id="Rectangle_97" data-name="Rectangle 97" width="10.734" height="11.703" transform="translate(294.08 95.424)" fill="#6c63ff" opacity="0.2"/>
    <rect id="Rectangle_98" data-name="Rectangle 98" width="10.734" height="11.703" transform="translate(308.749 95.424)" fill="#6c63ff" opacity="0.2"/>
    <rect id="Rectangle_99" data-name="Rectangle 99" width="10.734" height="11.703" transform="translate(323.422 95.424)" fill="#6c63ff" opacity="0.2"/>
    <rect id="Rectangle_100" data-name="Rectangle 100" width="10.734" height="11.703" transform="translate(338.09 95.424)" fill="#6c63ff" opacity="0.2"/>
    <rect id="Rectangle_101" data-name="Rectangle 101" width="10.734" height="11.703" transform="translate(352.763 95.424)" fill="#6c63ff" opacity="0.7"/>
    <rect id="Rectangle_102" data-name="Rectangle 102" width="10.734" height="11.703" transform="translate(367.436 95.424)" fill="#6c63ff" opacity="0.7"/>
    <rect id="Rectangle_103" data-name="Rectangle 103" width="10.734" height="11.703" transform="translate(382.105 95.424)" fill="#6c63ff" opacity="0.4"/>
    <rect id="Rectangle_104" data-name="Rectangle 104" width="10.734" height="11.703" transform="translate(396.778 95.424)" fill="#6c63ff" opacity="0.2"/>
    <rect id="Rectangle_105" data-name="Rectangle 105" width="10.734" height="11.703" transform="translate(411.447 95.424)" fill="#6c63ff"/>
    <rect id="Rectangle_106" data-name="Rectangle 106" width="10.734" height="11.703" transform="translate(44.666 110.251)" fill="#6c63ff" opacity="0.2"/>
    <rect id="Rectangle_107" data-name="Rectangle 107" width="10.734" height="11.703" transform="translate(59.339 110.251)" fill="#6c63ff" opacity="0.2"/>
    <rect id="Rectangle_108" data-name="Rectangle 108" width="10.734" height="11.703" transform="translate(74.008 110.251)" fill="#6c63ff" opacity="0.4"/>
    <rect id="Rectangle_109" data-name="Rectangle 109" width="10.734" height="11.703" transform="translate(88.68 110.251)" fill="#6c63ff" opacity="0.2"/>
    <rect id="Rectangle_110" data-name="Rectangle 110" width="10.734" height="11.703" transform="translate(103.353 110.251)" fill="#6c63ff" opacity="0.2"/>
    <rect id="Rectangle_111" data-name="Rectangle 111" width="10.734" height="11.703" transform="translate(118.022 110.251)" fill="#6c63ff" opacity="0.7"/>
    <rect id="Rectangle_112" data-name="Rectangle 112" width="10.734" height="11.703" transform="translate(132.695 110.251)" fill="#6c63ff" opacity="0.7"/>
    <rect id="Rectangle_113" data-name="Rectangle 113" width="10.734" height="11.703" transform="translate(147.364 110.251)" fill="#6c63ff" opacity="0.2"/>
    <rect id="Rectangle_114" data-name="Rectangle 114" width="10.734" height="11.703" transform="translate(162.037 110.251)" fill="#6c63ff" opacity="0.2"/>
    <rect id="Rectangle_115" data-name="Rectangle 115" width="10.734" height="11.703" transform="translate(176.71 110.251)" fill="#6c63ff" opacity="0.4"/>
    <rect id="Rectangle_116" data-name="Rectangle 116" width="10.734" height="11.703" transform="translate(191.378 110.251)" fill="#6c63ff"/>
    <rect id="Rectangle_117" data-name="Rectangle 117" width="10.734" height="11.703" transform="translate(206.051 110.251)" fill="#6c63ff" opacity="0.2"/>
    <rect id="Rectangle_118" data-name="Rectangle 118" width="10.734" height="11.703" transform="translate(220.72 110.251)" fill="#6c63ff"/>
    <rect id="Rectangle_119" data-name="Rectangle 119" width="10.734" height="11.703" transform="translate(235.393 110.251)" fill="#6c63ff"/>
    <rect id="Rectangle_120" data-name="Rectangle 120" width="10.734" height="11.703" transform="translate(250.066 110.251)" fill="#6c63ff"/>
    <rect id="Rectangle_121" data-name="Rectangle 121" width="10.734" height="11.703" transform="translate(264.734 110.251)" fill="#6c63ff" opacity="0.2"/>
    <rect id="Rectangle_122" data-name="Rectangle 122" width="10.734" height="11.703" transform="translate(279.407 110.251)" fill="#6c63ff"/>
    <rect id="Rectangle_123" data-name="Rectangle 123" width="10.734" height="11.703" transform="translate(294.08 110.251)" fill="#6c63ff" opacity="0.2"/>
    <rect id="Rectangle_124" data-name="Rectangle 124" width="10.734" height="11.703" transform="translate(308.749 110.251)" fill="#6c63ff" opacity="0.2"/>
    <rect id="Rectangle_125" data-name="Rectangle 125" width="10.734" height="11.703" transform="translate(323.422 110.251)" fill="#6c63ff" opacity="0.2"/>
    <rect id="Rectangle_126" data-name="Rectangle 126" width="10.734" height="11.703" transform="translate(338.09 110.251)" fill="#6c63ff" opacity="0.2"/>
    <rect id="Rectangle_127" data-name="Rectangle 127" width="10.734" height="11.703" transform="translate(352.763 110.251)" fill="#6c63ff" opacity="0.2"/>
    <rect id="Rectangle_128" data-name="Rectangle 128" width="10.734" height="11.703" transform="translate(367.436 110.251)" fill="#6c63ff" opacity="0.7"/>
    <rect id="Rectangle_129" data-name="Rectangle 129" width="10.734" height="11.703" transform="translate(382.105 110.251)" fill="#6c63ff" opacity="0.2"/>
    <rect id="Rectangle_130" data-name="Rectangle 130" width="10.734" height="11.703" transform="translate(396.778 110.251)" fill="#6c63ff" opacity="0.2"/>
    <rect id="Rectangle_131" data-name="Rectangle 131" width="10.734" height="11.703" transform="translate(411.447 110.251)" fill="#6c63ff"/>
    <rect id="Rectangle_132" data-name="Rectangle 132" width="10.734" height="11.703" transform="translate(44.666 125.073)" fill="#6c63ff" opacity="0.2"/>
    <rect id="Rectangle_133" data-name="Rectangle 133" width="10.734" height="11.703" transform="translate(59.339 125.073)" fill="#6c63ff" opacity="0.2"/>
    <rect id="Rectangle_134" data-name="Rectangle 134" width="10.734" height="11.703" transform="translate(74.008 125.073)" fill="#6c63ff" opacity="0.2"/>
    <rect id="Rectangle_135" data-name="Rectangle 135" width="10.734" height="11.703" transform="translate(88.68 125.073)" fill="#6c63ff" opacity="0.4"/>
    <rect id="Rectangle_136" data-name="Rectangle 136" width="10.734" height="11.703" transform="translate(103.353 125.073)" fill="#6c63ff" opacity="0.2"/>
    <rect id="Rectangle_137" data-name="Rectangle 137" width="10.734" height="11.703" transform="translate(118.022 125.073)" fill="#6c63ff" opacity="0.2"/>
    <rect id="Rectangle_138" data-name="Rectangle 138" width="10.734" height="11.703" transform="translate(132.695 125.073)" fill="#6c63ff" opacity="0.7"/>
    <rect id="Rectangle_139" data-name="Rectangle 139" width="10.734" height="11.703" transform="translate(147.364 125.073)" fill="#6c63ff" opacity="0.2"/>
    <rect id="Rectangle_140" data-name="Rectangle 140" width="10.734" height="11.703" transform="translate(162.037 125.073)" fill="#6c63ff" opacity="0.2"/>
    <rect id="Rectangle_141" data-name="Rectangle 141" width="10.734" height="11.703" transform="translate(176.71 125.073)" fill="#6c63ff" opacity="0.2"/>
    <rect id="Rectangle_142" data-name="Rectangle 142" width="10.734" height="11.703" transform="translate(191.378 125.073)" fill="#6c63ff"/>
    <rect id="Rectangle_143" data-name="Rectangle 143" width="10.734" height="11.703" transform="translate(206.051 125.073)" fill="#6c63ff" opacity="0.2"/>
    <rect id="Rectangle_144" data-name="Rectangle 144" width="10.734" height="11.703" transform="translate(220.72 125.073)" fill="#6c63ff"/>
    <rect id="Rectangle_145" data-name="Rectangle 145" width="10.734" height="11.703" transform="translate(235.393 125.073)" fill="#6c63ff"/>
    <rect id="Rectangle_146" data-name="Rectangle 146" width="10.734" height="11.703" transform="translate(250.066 125.073)" fill="#6c63ff" opacity="0.2"/>
    <rect id="Rectangle_147" data-name="Rectangle 147" width="10.734" height="11.703" transform="translate(264.734 125.073)" fill="#6c63ff" opacity="0.2"/>
    <rect id="Rectangle_148" data-name="Rectangle 148" width="10.734" height="11.703" transform="translate(279.407 125.073)" fill="#6c63ff" opacity="0.2"/>
    <rect id="Rectangle_149" data-name="Rectangle 149" width="10.734" height="11.703" transform="translate(294.08 125.073)" fill="#6c63ff" opacity="0.2"/>
    <rect id="Rectangle_150" data-name="Rectangle 150" width="10.734" height="11.703" transform="translate(308.749 125.073)" fill="#6c63ff" opacity="0.2"/>
    <rect id="Rectangle_151" data-name="Rectangle 151" width="10.734" height="11.703" transform="translate(323.422 125.073)" fill="#6c63ff" opacity="0.2"/>
    <rect id="Rectangle_152" data-name="Rectangle 152" width="10.734" height="11.703" transform="translate(338.09 125.073)" fill="#6c63ff" opacity="0.2"/>
    <rect id="Rectangle_153" data-name="Rectangle 153" width="10.734" height="11.703" transform="translate(352.763 125.073)" fill="#6c63ff" opacity="0.2"/>
    <rect id="Rectangle_154" data-name="Rectangle 154" width="10.734" height="11.703" transform="translate(367.436 125.073)" fill="#6c63ff" opacity="0.2"/>
    <rect id="Rectangle_155" data-name="Rectangle 155" width="10.734" height="11.703" transform="translate(382.105 125.073)" fill="#6c63ff" opacity="0.2"/>
    <rect id="Rectangle_156" data-name="Rectangle 156" width="10.734" height="11.703" transform="translate(396.778 125.073)" fill="#6c63ff" opacity="0.4"/>
    <rect id="Rectangle_157" data-name="Rectangle 157" width="10.734" height="11.703" transform="translate(411.447 125.073)" fill="#6c63ff"/>
    <rect id="Rectangle_158" data-name="Rectangle 158" width="10.734" height="11.703" transform="translate(44.666 139.9)" fill="#6c63ff" opacity="0.7"/>
    <rect id="Rectangle_159" data-name="Rectangle 159" width="10.734" height="11.703" transform="translate(59.339 139.9)" fill="#6c63ff" opacity="0.7"/>
    <rect id="Rectangle_160" data-name="Rectangle 160" width="10.734" height="11.703" transform="translate(74.008 139.9)" fill="#6c63ff" opacity="0.7"/>
    <rect id="Rectangle_161" data-name="Rectangle 161" width="10.734" height="11.703" transform="translate(88.68 139.9)" fill="#6c63ff" opacity="0.7"/>
    <rect id="Rectangle_162" data-name="Rectangle 162" width="10.734" height="11.703" transform="translate(103.353 139.9)" fill="#6c63ff" opacity="0.7"/>
    <rect id="Rectangle_163" data-name="Rectangle 163" width="10.734" height="11.703" transform="translate(118.022 139.9)" fill="#6c63ff" opacity="0.2"/>
    <rect id="Rectangle_164" data-name="Rectangle 164" width="10.734" height="11.703" transform="translate(132.695 139.9)" fill="#6c63ff" opacity="0.2"/>
    <rect id="Rectangle_165" data-name="Rectangle 165" width="10.734" height="11.703" transform="translate(147.364 139.9)" fill="#6c63ff" opacity="0.2"/>
    <rect id="Rectangle_166" data-name="Rectangle 166" width="10.734" height="11.703" transform="translate(162.037 139.9)" fill="#6c63ff" opacity="0.2"/>
    <rect id="Rectangle_167" data-name="Rectangle 167" width="10.734" height="11.703" transform="translate(176.71 139.9)" fill="#6c63ff" opacity="0.2"/>
    <rect id="Rectangle_168" data-name="Rectangle 168" width="10.734" height="11.703" transform="translate(191.378 139.9)" fill="#6c63ff" opacity="0.2"/>
    <rect id="Rectangle_169" data-name="Rectangle 169" width="10.734" height="11.703" transform="translate(206.051 139.9)" fill="#6c63ff"/>
    <rect id="Rectangle_170" data-name="Rectangle 170" width="10.734" height="11.703" transform="translate(220.72 139.9)" fill="#6c63ff" opacity="0.2"/>
    <rect id="Rectangle_171" data-name="Rectangle 171" width="10.734" height="11.703" transform="translate(235.393 139.9)" fill="#6c63ff" opacity="0.2"/>
    <rect id="Rectangle_172" data-name="Rectangle 172" width="10.734" height="11.703" transform="translate(250.066 139.9)" fill="#6c63ff" opacity="0.2"/>
    <rect id="Rectangle_173" data-name="Rectangle 173" width="10.734" height="11.703" transform="translate(264.734 139.9)" fill="#6c63ff"/>
    <rect id="Rectangle_174" data-name="Rectangle 174" width="10.734" height="11.703" transform="translate(279.407 139.9)" fill="#6c63ff" opacity="0.2"/>
    <rect id="Rectangle_175" data-name="Rectangle 175" width="10.734" height="11.703" transform="translate(294.08 139.9)" fill="#6c63ff" opacity="0.2"/>
    <rect id="Rectangle_176" data-name="Rectangle 176" width="10.734" height="11.703" transform="translate(308.749 139.9)" fill="#6c63ff" opacity="0.2"/>
    <rect id="Rectangle_177" data-name="Rectangle 177" width="10.734" height="11.703" transform="translate(323.422 139.9)" fill="#6c63ff" opacity="0.2"/>
    <rect id="Rectangle_178" data-name="Rectangle 178" width="10.734" height="11.703" transform="translate(338.09 139.9)" fill="#6c63ff" opacity="0.2"/>
    <rect id="Rectangle_179" data-name="Rectangle 179" width="10.734" height="11.703" transform="translate(352.763 139.9)" fill="#6c63ff" opacity="0.2"/>
    <rect id="Rectangle_180" data-name="Rectangle 180" width="10.734" height="11.703" transform="translate(367.436 139.9)" fill="#6c63ff" opacity="0.2"/>
    <rect id="Rectangle_181" data-name="Rectangle 181" width="10.734" height="11.703" transform="translate(382.105 139.9)" fill="#6c63ff" opacity="0.2"/>
    <rect id="Rectangle_182" data-name="Rectangle 182" width="10.734" height="11.703" transform="translate(396.778 139.9)" fill="#6c63ff" opacity="0.2"/>
    <rect id="Rectangle_183" data-name="Rectangle 183" width="10.734" height="11.703" transform="translate(411.447 139.9)" fill="#6c63ff"/>
    <ellipse id="Ellipse_2" data-name="Ellipse 2" cx="14.673" cy="15.997" rx="14.673" ry="15.997" transform="translate(294.657 150.961)" fill="#767d9f"/>
    <path id="Path_67" data-name="Path 67" d="M760.192,446.419q2.2,10.45,3.728,21.057a13.335,13.335,0,0,1-.118,6.3,22.025,22.025,0,0,1-2.71,4.4c-.934,1.45-1.641,3.308-1.073,4.968s2.226,2.569,3.808,3.037c4.528,1.33,9.354.362,13.861-1.078a21.442,21.442,0,0,0,5.811-2.624,22.658,22.658,0,0,0,4.915-5.046c6.569-8.684,10.869-19.107,14.917-29.466a15.808,15.808,0,0,1-13.932-6.12c-1.658-2.124-2.874-5.083-1.94-7.68-2.739,1.638-5.992,1.748-8.942,2.867a30.761,30.761,0,0,0-5.26,2.821q-3.021,1.9-6.009,3.881C764.973,445.235,762.839,446.566,760.192,446.419Z" transform="translate(-451.625 -299.811)" fill="#ae6e79"/>
    <path id="Path_68" data-name="Path 68" d="M746.59,469.63c-2.571,5.455-5.916,10.7-10.692,13.946s-11.206,4.129-15.99.917c-2.356-1.569-4.141-3.954-6.2-5.964s-4.629-3.73-7.393-3.468c-3.046.289-5.432,2.881-7.473,5.363a63.671,63.671,0,0,0-8.281,12.166c-4.208,8.579-5.205,18.607-5.02,28.333s1.477,19.4,1.506,29.126c.042,11.964-1.818,23.832-3.7,35.618,17.294-2.321,34.61,2.753,51.942,4.675,11.092,1.243,22.268,1.216,33.419,1.184,1.961,0,4.048-.055,5.681-1.239a8.214,8.214,0,0,0,2.352-3.046,31.2,31.2,0,0,0,2.588-10.12c1.09-8.817,1.123-17.745,1.153-26.644.076-21.561.147-43.2-2.365-64.592a65.557,65.557,0,0,0-3.261-15.474c-1.852-4.922-4.873-9.45-9.1-12.088-2.714-1.7-9-4.652-12.2-2.941C749.969,457.29,748.311,465.979,746.59,469.63Z" transform="translate(-407.334 -311.013)" fill="#767d9f"/>
    <path id="Path_69" data-name="Path 69" d="M831.628,526.066c-.652-13.3-3.307-27.5,2.344-39.311,1.389-2.9-3.594-6.519-2.053-9.327a44.394,44.394,0,0,0,4.233-10.978,8.995,8.995,0,0,0,.274-4.06c-.56-2.427-2.76-3.872-4.629-5.349-2.062-1.633-3.122-6.611-3.787-9.3s5.289.551,7.684-.408c3.324-1.326,7.549-.491,10.865.853a16.741,16.741,0,0,0,5.836.862,70.554,70.554,0,0,0,11.483-.3,26.266,26.266,0,0,1,5.138-.482c4.38.271,8.189,3.537,10.781,7.4s4.242,8.363,6.366,12.547c1.772,3.487,3.884,6.78,5.395,10.409a68.25,68.25,0,0,1,3.021,10.093l2.159,8.8a12.714,12.714,0,0,1,.53,3.9A11.761,11.761,0,0,1,896,505.394a76.265,76.265,0,0,1-7.856,13.07c-4.54,6.069-10.053,11.542-12.75,18.809a50.962,50.962,0,0,0-2.171,8.84,352.466,352.466,0,0,0-4.587,36.31,68.451,68.451,0,0,0-23.362-6.978c-2.352-.266-5.386.239-7.625-.459-3.745-1.161-4.157-8.065-4.725-11.68a116.107,116.107,0,0,1-1.124-17.433C831.762,539.259,831.952,532.658,831.628,526.066Z" transform="translate(-491.093 -306.562)" fill="#4c4981"/>
    <path id="Path_70" data-name="Path 70" d="M591.219,558.233c1.771,11.01,3.724,22.052,7.574,32.4-.1.1-.194.193-.29.285-.341.316-.694.615-1.065.917a14.362,14.362,0,0,0-2.525,2.083,3.743,3.743,0,0,0-.631,1.124,2.721,2.721,0,0,0,0,2.051c-2.007.968-4.338.67-6.589.578-1.94-.078-3.821,0-5.378,1.161-2.163,1.624-2.815,4.743-3.164,7.579q-.194,1.551-.332,3.106-.135,1.445-.219,2.9a94.366,94.366,0,0,0-.08,9.634q.034.881.088,1.762c-6.876-.179-13.141-4.087-19.07-7.886a10.755,10.755,0,0,1-3.631-3.211,7.78,7.78,0,0,1-.972-4.721,5.677,5.677,0,0,1,.067-.7,20.468,20.468,0,0,1,.964-3.982,50.334,50.334,0,0,1,8.075-14.978c1.506-1.918,3.2-3.794,3.9-6.2.307-1.051.421-2.165.732-3.211,1.4-4.532,6.438-6.675,8.163-11.074.421-1.051.614-2.2,1.136-3.211a7.9,7.9,0,0,1,1.788-2.179c.307-.28.627-.55.943-.821q4.435-3.789,8.546-8.005.766-.785,1.515-1.587A29.687,29.687,0,0,0,591.219,558.233Z" transform="translate(-332.927 -363.608)" fill="#4c4981"/>
    <path id="Path_71" data-name="Path 71" d="M683.042,482.766c-.606.7-1.262,1.353-1.906,2l-.173.17-.682.688a17.564,17.564,0,0,0-3.177,4.032l-.072.128c-2.146,4.188-1.351,9.345-.753,14.1a130.691,130.691,0,0,1,1,17.891c-.109,8.258-1,16.46-1.018,24.708q0,2.807.114,5.611c.122,3.042.332,6.079.585,9.115.273,3.331.6,6.656.909,9.983.244,2.574.475,5.143.669,7.712.1,1.33.189,2.656.265,3.987.088,1.56.16,3.124.2,4.684h0c.029.991.046,1.977.046,2.968v1.684q0,1.61-.08,3.211-.084,2.06-.257,4.129a7.083,7.083,0,0,1-1.33,4.193c-.059.064-.122.124-.185.184l-1.363-.184a128.5,128.5,0,0,0-28.319-.551c.206-1.551.4-3.1.581-4.652.084-.734.168-1.473.248-2.211q.139-1.266.265-2.532.145-1.376.269-2.753.328-3.546.576-7.1.366-5.18.556-10.377.092-2.482.143-4.968.072-3.083.067-6.17,0-3-.046-6.01c0-.661-.025-1.321-.076-1.977a13.613,13.613,0,0,0-.223-1.757,24.283,24.283,0,0,0-1.262-3.89c-.093-.239-.181-.459-.269-.711-.051-.124-.1-.252-.143-.376,2.424-2.353,4.149-5.505,5.807-8.606,2.689-5,5.441-10.212,5.891-15.983s-2.18-12.253-7.237-14.015a32.571,32.571,0,0,0-4.25-.858,17.544,17.544,0,0,1-5.677-1.885q-1.262,1.413-2.525,2.775a10.908,10.908,0,0,1,.913-4l.6.032a1.344,1.344,0,0,1-.067-.459,2.453,2.453,0,0,1,.976-1.661c1.982-1.835,5.1-2.243,6.35-4.725.522-1.032.61-2.262,1.031-3.344,1.208-3.087,4.675-4.225,6.762-6.693s2.609-5.964,4.3-8.716a12.356,12.356,0,0,1,5.049-4.588c.168-.087.341-.174.513-.252,3.492-1.629,7.641-2,11.26-1.991,1.405,0,5.05.046,6.834.821a2.215,2.215,0,0,1,.779.518C687.406,476.366,684.448,481.133,683.042,482.766Z" transform="translate(-382.347 -320.703)" fill="#4c4981"/>
    <path id="Path_72" data-name="Path 72" d="M631.877,541.291a23.738,23.738,0,0,1,19.668,2.234,19.41,19.41,0,0,1,7.414,7.7c2.5,4.955,2.394,10.928,2.217,16.584-.088,2.831-.2,5.762-1.346,8.3-1.326,2.941-3.825,4.959-6.375,6.611a17.051,17.051,0,0,1-5.184,2.445c-2.828.67-5.765.1-8.614-.459-3.1-.624-6.421-1.376-8.571-3.89a16.429,16.429,0,0,1-2.634-5.207q-1.469-4.014-2.946-8.019c-1.7-4.638-2.281-8.5-.029-13.015,1.023-2.06,2.272-3.987,3.282-6.06C629.264,547.461,631.073,541.562,631.877,541.291Z" transform="translate(-372.958 -357.149)" fill="#4c4981"/>
    <path id="Path_73" data-name="Path 73" d="M526.668,683.659v13.717a65.371,65.371,0,0,1-27.238,5.872H385.948c-.059.064-.122.124-.185.184l-1.363-.184H182.534a82.49,82.49,0,0,1-45.5-13.469V668.837l97.084-12.217h.076l56.537,5.221,14.631,1.376,7.6.7,15.729,1.454,8.092.748,11.782,1.092,1.658.151,8.491.785,11.521,1.032,16.2,1.5,27.006,2.5,19,1.757,31.2,2.886,5.933.546.64.06.555.05,7.835.725,8.6.8,1,.092Z" transform="translate(-90.9 -420.212)" fill="#504f60"/>
    <path id="Path_74" data-name="Path 74" d="M590.034,546.409,468.367,523.77l-4.717,26.007,55.771,7.28,17.172,2.344,47.238-10.143Z" transform="translate(-268.299 -283.467)" fill="#9c9ca1"/>
    <path id="Path_75" data-name="Path 75" d="M642.33,725.154l60.956-12.492a1.978,1.978,0,0,1,1.739.488,2.382,2.382,0,0,1,.76,1.774h0a2.25,2.25,0,0,1-1.721,2.262l-59.529,12.152Z" transform="translate(-383.575 -450.522)" fill="#9c9ca1"/>
    <path id="Path_76" data-name="Path 76" d="M639.87,643.829a14.662,14.662,0,0,0,5.529-1.436c2.1-1.142,3.741-3.11,5.689-4.56a15.743,15.743,0,0,1,14.925-1.8c4.911,1.844,9.009,5.794,11.879,10.51,1.906,3.142,3.337,7.152,1.99,10.62a14.211,14.211,0,0,1-1.734,2.954l-3.509,5a12.932,12.932,0,0,1-2.382,2.794,9.583,9.583,0,0,1-4.553,1.725c-4.271.679-8.618.294-12.922.606-7.393.537-14.614,3.133-22.024,3.046a61.245,61.245,0,0,1-12.624-1.922l-18.418-4.129c-3.206-.716-6.829-1.762-8.34-4.932a12.325,12.325,0,0,1-.884-4.684c-.219-4.422,0-9.34,2.811-12.529,2.643-2.991,6.821-3.936,9.977-6.147,3.863-2.711,5.138-1.835,9.211.2A46.814,46.814,0,0,0,639.87,643.829Z" transform="translate(-354.672 -408.48)" fill="#ae6e79"/>
    <path id="Path_77" data-name="Path 77" d="M639.87,643.829a14.662,14.662,0,0,0,5.529-1.436c2.1-1.142,3.741-3.11,5.689-4.56a15.743,15.743,0,0,1,14.925-1.8c4.911,1.844,9.009,5.794,11.879,10.51,1.906,3.142,3.337,7.152,1.99,10.62a14.211,14.211,0,0,1-1.734,2.954l-3.509,5a12.932,12.932,0,0,1-2.382,2.794,9.583,9.583,0,0,1-4.553,1.725c-4.271.679-8.618.294-12.922.606-7.393.537-14.614,3.133-22.024,3.046a61.245,61.245,0,0,1-12.624-1.922l-18.418-4.129c-3.206-.716-6.829-1.762-8.34-4.932a12.325,12.325,0,0,1-.884-4.684c-.219-4.422,0-9.34,2.811-12.529,2.643-2.991,6.821-3.936,9.977-6.147,3.863-2.711,5.138-1.835,9.211.2A46.814,46.814,0,0,0,639.87,643.829Z" transform="translate(-354.672 -408.48)" opacity="0.05"/>
    <path id="Path_78" data-name="Path 78" d="M730.962,637.83a102.946,102.946,0,0,1-15.775,5.666c-9.072,2.179-18.565,1.835-27.566,4.326-4.755,1.321-9.48,3.45-14.366,3.019a39.967,39.967,0,0,1-6.417-1.468c-11.938-3.211-25.508-2.17-35.2,6.088a46.5,46.5,0,0,0-8.492,10.093,7.246,7.246,0,0,0-.924,5.657,6.619,6.619,0,0,0,3.411,4.38,34.1,34.1,0,0,0,11.942,3.473c5.525.532,11.075-.321,16.571-1.174,8.155-1.262,16.314-2.528,24.448-3.945,2.92-.509,5.841-1.037,8.778-1.441,21.136-2.913,42.655.629,63.846-1.8a18.164,18.164,0,0,0,6.27-1.564c4.932-2.523,7.372-9.175,6.354-15.02s-4.948-10.7-9.678-13.685c-3.964-2.509-8.239-3.523-12.653-4.588C737.408,634.8,734.909,636.178,730.962,637.83Z" transform="translate(-371.802 -408.771)" fill="#ae6e79"/>
    <path id="Path_79" data-name="Path 79" d="M912.794,541.358c2.331,3.331,2.828,7.8,2.575,11.969s-1.161,8.294-1.3,12.483c-.185,5.744,1.086,11.469.871,17.194a53.454,53.454,0,0,1-2.053,11.776c-1.216,4.537-2.975,9.414-6.817,11.593-5.1,2.895-15.8,1.266-21.161,3.532.488-3.317,5.167-8.12,5.655-11.437a23.245,23.245,0,0,0,.316-6.95,15.8,15.8,0,0,0-3.913-7.7,20.3,20.3,0,0,0-11.138-6.881c-4.271-.844-14.728-.151-18.144,2.789-.421-3.037,7.406-5.964,10.158-6.62,1.372-.335,2.946-.147,4.044-1.1,2.1-1.8.577-5.381.677-8.258.08-2.294,1.309-4.395,1.557-6.689.421-3.67-1.776-7.409-.913-11.01a29.964,29.964,0,0,1,1.523-3.766c1.5-3.876.842-8.3.042-12.419-.5-2.587-.98-5.505.341-7.712,1.224-2.06,4.7,5.276,6.926,4.936,7.351-1.124,14-7.065,19.941-2.2,3.026,2.477,3.421,5.046,4.629,8.583C907.787,536.844,910.829,538.568,912.794,541.358Z" transform="translate(-508.303 -347.237)" opacity="0.1"/>
    <path id="Path_80" data-name="Path 80" d="M915.794,537.7c2.331,3.33,2.828,7.8,2.575,11.969s-1.161,8.294-1.3,12.483c-.185,5.744,1.086,11.469.871,17.194a53.453,53.453,0,0,1-2.054,11.776c-1.216,4.537-2.975,9.414-6.817,11.593-5.1,2.895-15.8,1.266-21.161,3.532.488-3.317,5.167-8.12,5.655-11.437a23.248,23.248,0,0,0,.316-6.95,15.8,15.8,0,0,0-3.914-7.7,20.3,20.3,0,0,0-11.138-6.881c-4.271-.844-14.728-.151-18.145,2.789-.421-3.037,7.406-5.964,10.158-6.62,1.372-.335,2.946-.147,4.044-1.1,2.1-1.8.576-5.381.677-8.258.08-2.294,1.309-4.395,1.557-6.689.421-3.67-1.776-7.409-.913-11.01a29.931,29.931,0,0,1,1.523-3.766c1.5-3.877.842-8.3.042-12.418-.5-2.587-.981-5.505.341-7.712,1.224-2.06,3.619-2.84,5.845-3.184A27.033,27.033,0,0,1,905,521.234c3.026,2.477,3.421,5.046,4.629,8.583C910.787,533.184,913.829,534.909,915.794,537.7Z" transform="translate(-510.041 -343.578)" fill="#4c4981"/>
    <path id="Path_81" data-name="Path 81" d="M329.746,498.8l22.878,92.182a5.433,5.433,0,0,0,4.591,4.225L460.19,605.987a5.065,5.065,0,0,0,4.5-1.964,6.14,6.14,0,0,0,1.132-5.137L440.767,487.693a5.346,5.346,0,0,0-5.521-4.363l-100.817,8.221a5.2,5.2,0,0,0-3.9,2.421A6.182,6.182,0,0,0,329.746,498.8Z" transform="translate(-202.416 -326.411)" fill="#9c9ca1"/>
    <ellipse id="Ellipse_3" data-name="Ellipse 3" cx="11.319" cy="12.501" rx="11.319" ry="12.501" transform="translate(320.14 165.37)" fill="#fff"/>
    <path id="Path_82" data-name="Path 82" d="M829.554,479.077s2.386,7.735-4.654,10.987l-.9,1.716,4.41,4.743s5.437-10.813,4.847-14.653C833.257,481.871,832.416,477.971,829.554,479.077Z" transform="translate(-488.8 -324.01)" fill="#fff"/>
    <ellipse id="Ellipse_4" data-name="Ellipse 4" cx="10.915" cy="11.9" rx="10.915" ry="11.9" transform="translate(321.844 166.572)" fill="#6c63ff"/>
    <path id="Path_83" data-name="Path 83" d="M827.051,461l-1.734-3.12-2.525-.39c.539-10.272-1.906-13.331-1.906-13.331l-.568-.06-2.474-.261-4.654-5.267v-1.5c6.539.849,10.154,4.234,12.106,8.2C828.746,452.246,827.051,461,827.051,461Z" transform="translate(-482.539 -301.386)" fill="#6c63ff"/>
    <path id="Path_84" data-name="Path 84" d="M820.368,443.978v1.89l-2.474-.261-4.654-5.266S820.44,442.1,820.368,443.978Z" transform="translate(-482.568 -303.151)" stroke="#4c4981" stroke-miterlimit="10" stroke-width="1" opacity="0.1"/>
    <path id="Path_85" data-name="Path 85" d="M843.744,470.7l-1.734-3.12V455C845.439,461.946,843.744,470.7,843.744,470.7Z" transform="translate(-499.232 -311.086)" stroke="#4c4981" stroke-miterlimit="10" stroke-width="1" opacity="0.1"/>
    <path id="Path_90" data-name="Path 90" d="M6.657,0c3.429-.131,6.015,5.057,5.776,11.587S9.221,23.521,5.792,23.652-.224,18.595.015,12.064,3.228.133,6.657,0Z" transform="translate(295.749 165.778) rotate(-30)" fill="#fff"/>
    <path id="Path_86" data-name="Path 86" d="M744.7,504.939c3.059,5.776,6.813,9.634,3.909,11.469s-11.361.917-14.42-4.863-.282-13.763,2.621-15.6S741.634,499.15,744.7,504.939Z" transform="translate(-436.007 -333.041)" fill="#6c63ff"/>
    <path id="Path_87" data-name="Path 87" d="M744.287,389.2c0,18.456-11.584,36.242-28.513,36.242s-30.654-14.963-30.654-33.42,13.725-33.42,30.654-33.42C732.7,358.618,744.287,370.739,744.287,389.2Z" transform="translate(-408.359 -258.909)" opacity="0.1"/>
    <ellipse id="Ellipse_6" data-name="Ellipse 6" cx="30.654" cy="33.42" rx="30.654" ry="33.42" transform="translate(276.76 98.791)" fill="#ae6e79"/>
    <path id="Path_88" data-name="Path 88" d="M695.447,345.841c3.648,1.463,5.807,5.574,9.081,7.863,4.629,3.211,10.654,2.381,15.939.794,2.946-.876,6.026-1.945,8.925-.973a2.337,2.337,0,0,0,1.359.211c.631-.2.943-.959,1.149-1.638,3.585-11.652,1.973-24.851-3.438-35.631a22.827,22.827,0,0,0-5.378-7.4,21.783,21.783,0,0,0-6.11-3.363,56.9,56.9,0,0,0-12.153-3.271,6.932,6.932,0,0,0-2.217-.078,8.9,8.9,0,0,0-2.828,1.307,27.117,27.117,0,0,1-12.565,3.72c-5.891.243-12.624-1.271-17.164,2.849-5.47,4.941-4.107,14.579-7.654,21.286-2.348,4.436-6.876,7.657-7.62,12.707a12.757,12.757,0,0,0,.265,4.62c1.734,7.771,8.635,13.79,15.99,13.932a5.648,5.648,0,0,0,3.265-.729,7.705,7.705,0,0,0,1.721-1.785C680.833,354.043,686.345,342.189,695.447,345.841Z" transform="translate(-390.725 -228.438)" fill="#444053"/>
    <path id="Path_89" data-name="Path 89" d="M731.882,389.987c-.206.679-.518,1.44-1.149,1.638a2.337,2.337,0,0,1-1.359-.211c-2.9-.973-6,.1-8.921.973-5.289,1.587-11.328,2.436-15.94-.794-3.278-2.294-5.432-6.423-9.085-7.863-9.1-3.67-14.614,8.2-19.445,14.423a7.706,7.706,0,0,1-1.721,1.785,5.648,5.648,0,0,1-3.265.729c-7.33-.142-14.235-6.161-15.99-13.932-.1-.459-.181-.918-.244-1.376a.242.242,0,0,1-.021.119,12.756,12.756,0,0,0,.265,4.62c1.734,7.771,8.639,13.79,15.99,13.932a5.647,5.647,0,0,0,3.265-.729,7.706,7.706,0,0,0,1.721-1.785c4.831-6.221,10.343-18.075,19.445-14.423,3.652,1.463,5.807,5.574,9.085,7.863,4.629,3.211,10.65,2.381,15.94.794,2.945-.876,6.021-1.945,8.921-.973a2.338,2.338,0,0,0,1.359.211c.631-.2.942-.959,1.149-1.638a44.9,44.9,0,0,0,1.885-14.8A44.056,44.056,0,0,1,731.882,389.987Z" transform="translate(-390.707 -269.707)" opacity="0.1"/>
  </g>
</svg>
