<svg xmlns="http://www.w3.org/2000/svg" xmlns:xlink="http://www.w3.org/1999/xlink" width="481.248" height="256.057" viewBox="0 0 481.248 256.057">
  <defs>
    <linearGradient id="linear-gradient" x1="0.5" y1="1" x2="0.5" y2="-0.001" gradientUnits="objectBoundingBox">
      <stop offset="0" stop-color="gray" stop-opacity="0.251"/>
      <stop offset="0.54" stop-color="gray" stop-opacity="0.122"/>
      <stop offset="1" stop-color="gray" stop-opacity="0.102"/>
    </linearGradient>
  </defs>
  <g id="undraw_programming_2svr" transform="translate(1.171 -0.094)">
    <path id="Path_92" data-name="Path 92" d="M523.714,375.457q-.8,1.733-1.6,3.42-1.248,2.62-2.463,5.139c-.36.744-.721,1.474-1.072,2.2-3.975,8.12-7.686,15.3-10.838,21.209a33.836,33.836,0,0,1-29.491,17.886l-70.088.763h-.739l-6.008.065-5.139.055-15.76.171h-.638l-8.023.088H371.6l-49.452.536-44.142.462-5.135.055-31.89.347h-.037l-20.682.222h-.222l-65.4.707L135.084,429a40.7,40.7,0,0,1-12.326-1.765A39.927,39.927,0,0,1,104.691,415.8a92.408,92.408,0,0,1-18.639-31.779q-.892-2.537-1.664-5.139c-14.239-48.135,3.12-110.237,34.362-151.8q1.964-2.607,3.993-5.084l.032-.037c9.609-11.795,20.382-21.648,31.857-28.655,20.336-12.437,42.866-15.94,65.027-5.5a145.462,145.462,0,0,0,53.228,14.119c1.715.111,3.429.194,5.135.245,38.929,1.225,75.412-12.8,118.256-21.856,1.705-.36,3.415-.716,5.139-1.054,30.563-6.082,64.468-9.29,104.788-2.547a87.391,87.391,0,0,1,12.368,2.958q2.667.86,5.139,1.849c19.245,7.829,29.741,22.3,34.2,40.421q.633,2.523,1.1,5.135C566.918,270.678,543.758,332.526,523.714,375.457Z" transform="translate(-80.521 -172.851)" fill="#bfbfbf"/>
    <g id="Group_13" data-name="Group 13" transform="translate(4.885 6.345)" opacity="0.1">
      <path id="Path_93" data-name="Path 93" d="M205.13,217V452.532l-19.564.213a40.7,40.7,0,0,1-12.326-1.765V245.655h.032C182.881,233.846,193.654,223.993,205.13,217Z" transform="translate(-134.884 -202.941)" fill="#6c63ff"/>
      <path id="Path_94" data-name="Path 94" d="M604.883,284.121H164.6q1.964-2.607,3.993-5.084V279H603.787Q604.421,281.51,604.883,284.121Z" transform="translate(-130.238 -236.286)" fill="#6c63ff"/>
      <path id="Path_95" data-name="Path 95" d="M1034.839,189.337V386.684h-1.6q-1.247,2.621-2.463,5.139c-.36.744-.721,1.474-1.072,2.2V187.47Q1032.367,188.33,1034.839,189.337Z" transform="translate(-595.513 -187.059)" fill="#6c63ff"/>
      <path id="Path_96" data-name="Path 96" d="M770.229,186.58V433.495l-5.139.055V187.634C766.8,187.273,768.505,186.917,770.229,186.58Z" transform="translate(-453.198 -186.58)" fill="#6c63ff"/>
      <path id="Path_97" data-name="Path 97" d="M503.245,235.865V461.21l-5.135.056V235.62C499.825,235.731,501.539,235.8,503.245,235.865Z" transform="translate(-309.609 -212.955)" fill="#6c63ff"/>
      <path id="Path_98" data-name="Path 98" d="M527.972,618.52q-1.248,2.621-2.463,5.139H91.914q-.892-2.537-1.664-5.139Z" transform="translate(-90.25 -418.89)" fill="#6c63ff"/>
    </g>
    <rect id="Rectangle_191" data-name="Rectangle 191" width="8.781" height="26.649" transform="translate(97.639 122.886)" fill="#3f3d56"/>
    <rect id="Rectangle_192" data-name="Rectangle 192" width="8.781" height="28.192" transform="translate(333.961 121.499)" fill="#3f3d56"/>
    <path id="Path_99" data-name="Path 99" d="M455.964,518.322v6.008l-70.213.647-.749.014-26.686.245-.638.009-8.111.069h-.24l-49.443.458-81.162.753h-.069l-20.636.194-.222,0-91.695.841v-6.933l21.56-12.941,43.259-.36.924,0,.305,0,.924-.014,20.77-.171.929,0,.3,0,.924,0,6.66-.056.176,0,16.43-.139h.134L347.6,505.843l3.138-.023h.314l2.394-.023,17.4-.143.924-.014.855-.009h.444l5.412-.042,1.072-.014,1.437-.009,4.506-.042,7.15-.06.924-.009,1.608-.009h.3l34.529-.3Z" transform="translate(-57.22 -271.657)" fill="#65617d"/>
    <path id="Path_100" data-name="Path 100" d="M455.964,518.322v6.008l-70.213.647-.749.014-26.686.245-.638.009-8.111.069h-.24l-49.443.458-81.162.753h-.069l-20.636.194-.222,0-91.695.841v-6.933l21.56-12.941,43.259-.36.924,0,.305,0,.924-.014,20.77-.171.929,0,.3,0,.924,0,6.66-.056.176,0,16.43-.139h.134L347.6,505.843l3.138-.023h.314l2.394-.023,17.4-.143.924-.014.855-.009h.444l5.412-.042,1.072-.014,1.437-.009,4.506-.042,7.15-.06.924-.009,1.608-.009h.3l34.529-.3Z" transform="translate(-57.22 -271.657)" opacity="0.2"/>
    <path id="Path_101" data-name="Path 101" d="M350.071,656.57v11.319a2.833,2.833,0,0,1-1.618,2.56,2.776,2.776,0,0,1-1.155.277l-16.13.342a2.773,2.773,0,0,1-1.248-.263,2.828,2.828,0,0,1-1.65-2.574V656.57Z" transform="translate(-213.379 -433.009)" fill="#3f3d56"/>
    <path id="Path_102" data-name="Path 102" d="M350.071,656.57v11.319a2.833,2.833,0,0,1-1.618,2.56,2.776,2.776,0,0,1-1.155.277l-16.13.342a2.773,2.773,0,0,1-1.248-.263,2.828,2.828,0,0,1-1.65-2.574V656.57Z" transform="translate(-213.379 -433.009)" opacity="0.1"/>
    <path id="Path_103" data-name="Path 103" d="M352.071,656.57v11.319a2.833,2.833,0,0,1-1.618,2.56,2.776,2.776,0,0,1-1.155.277l-16.13.342a2.773,2.773,0,0,1-1.248-.263,2.828,2.828,0,0,1-1.65-2.574V656.57Z" transform="translate(-214.454 -433.009)" fill="#3f3d56"/>
    <rect id="Rectangle_193" data-name="Rectangle 193" width="21.801" height="14.558" transform="translate(314.549 223.561)" fill="#3f3d56"/>
    <rect id="Rectangle_194" data-name="Rectangle 194" width="21.801" height="14.558" transform="translate(314.549 223.561)" opacity="0.1"/>
    <rect id="Rectangle_195" data-name="Rectangle 195" width="21.801" height="14.558" transform="translate(313.625 223.561)" fill="#3f3d56"/>
    <path id="Path_104" data-name="Path 104" d="M220.381,265.82v2.648l-8.781-.226V265.82Z" transform="translate(-113.961 -142.939)" opacity="0.1"/>
    <path id="Path_105" data-name="Path 105" d="M317.932,268,307.38,343.8a1.987,1.987,0,0,1-2.02,1.715l-84.485-2.191-1.6-.042a1.987,1.987,0,0,1-1.923-2.251l11.845-79.346a1.987,1.987,0,0,1,2.1-1.678l84.79,5.74A1.983,1.983,0,0,1,317.932,268Z" transform="translate(-153.713 -219.723)" fill="#65617d"/>
    <path id="Path_106" data-name="Path 106" d="M165.534,99.16,156.6,169.1l77.645,2.463,9.549-67.477Z" transform="translate(-84.381 -53.304)" fill="#6c63ff"/>
    <rect id="Rectangle_196" data-name="Rectangle 196" width="94.593" height="80.108" rx="5.33" transform="translate(177.594 44.774)" fill="#65617d"/>
    <rect id="Rectangle_197" data-name="Rectangle 197" width="85.964" height="66.705" transform="translate(182.059 50.168)" fill="#6c63ff"/>
    <path id="Path_107" data-name="Path 107" d="M731.711,262.82v1.752l-8.781.18V262.82Z" transform="translate(-388.969 -141.325)" opacity="0.1"/>
    <path id="Path_108" data-name="Path 108" d="M794.36,338.069a1.424,1.424,0,0,1-1.387,1.516l-86.519,1.789a1.424,1.424,0,0,1-1.447-1.29l-7.436-77.312a1.424,1.424,0,0,1,1.349-1.558l85.862-4.27.924-.046a1.419,1.419,0,0,1,1.488,1.294Z" transform="translate(-411.997 -218.053)" fill="#65617d"/>
    <path id="Path_109" data-name="Path 109" d="M628.93,98.675l78.417-3.855,6.623,70.25-77.8,1.849Z" transform="translate(-338.413 -50.97)" fill="#6c63ff"/>
    <path id="Path_110" data-name="Path 110" d="M895.856,338.069a1.424,1.424,0,0,1-1.387,1.516l-8.19-82.641.924-.046a1.419,1.419,0,0,1,1.488,1.294Z" transform="translate(-513.492 -218.053)" opacity="0.1"/>
    <path id="Path_111" data-name="Path 111" d="M231.307,259.993l-10.431,83.32-1.6-.042a1.987,1.987,0,0,1-1.923-2.251l11.845-79.346A1.987,1.987,0,0,1,231.307,259.993Z" transform="translate(-153.713 -219.716)" opacity="0.1"/>
    <rect id="Rectangle_198" data-name="Rectangle 198" width="8.781" height="7.894" transform="translate(97.639 141.641)" opacity="0.1"/>
    <path id="Path_112" data-name="Path 112" d="M272.731,483.65v2.3l-21.8.582V483.65Z" transform="translate(-135.114 -260.094)" opacity="0.1"/>
    <path id="Path_113" data-name="Path 113" d="M353.393,483.146v77.737a1.849,1.849,0,0,1-1.779,1.826l-88.575,2.357h-.023a1.849,1.849,0,0,1-1.826-1.826V483.146a1.849,1.849,0,0,1,1.826-1.826h88.552A1.849,1.849,0,0,1,353.393,483.146Z" transform="translate(-177.301 -338.755)" fill="#65617d"/>
    <path id="Path_114" data-name="Path 114" d="M263.039,481.32v83.745h-.023a1.849,1.849,0,0,1-1.826-1.826V483.146a1.849,1.849,0,0,1,1.826-1.826Z" transform="translate(-177.301 -338.755)" opacity="0.1"/>
    <path id="Path_115" data-name="Path 115" d="M194.6,319.15h82.035v68.517L194.6,389.516Z" transform="translate(-104.818 -171.621)" fill="#d4dfec"/>
    <rect id="Rectangle_199" data-name="Rectangle 199" width="8.781" height="8.051" transform="translate(333.961 141.641)" opacity="0.1"/>
    <path id="Path_116" data-name="Path 116" d="M700.731,483.65v2.963l-21.8-.582v-2.38Z" transform="translate(-365.305 -260.094)" opacity="0.1"/>
    <path id="Path_117" data-name="Path 117" d="M760.372,483.146V563.24a1.849,1.849,0,0,1-1.849,1.826h0l-88.594-2.357a1.849,1.849,0,0,1-1.779-1.826V483.146a1.849,1.849,0,0,1,1.826-1.826h88.552A1.849,1.849,0,0,1,760.372,483.146Z" transform="translate(-396.176 -338.755)" fill="#65617d"/>
    <path id="Path_118" data-name="Path 118" d="M865.539,483.146V563.24a1.849,1.849,0,0,1-1.849,1.826h0V481.32h0a1.849,1.849,0,0,1,1.849,1.826Z" transform="translate(-501.343 -338.755)" opacity="0.1"/>
    <path id="Path_119" data-name="Path 119" d="M680.135,319.15H598.1v68.517l82.035,1.849Z" transform="translate(-321.832 -171.621)" fill="#d4dfec"/>
    <path id="Path_120" data-name="Path 120" d="M555.893,483.146v77.737a1.849,1.849,0,0,1-1.779,1.826l-88.575,2.357h0a1.849,1.849,0,0,1-1.849-1.826V483.146a1.849,1.849,0,0,1,1.826-1.826h88.552A1.848,1.848,0,0,1,555.893,483.146Z" transform="translate(-286.211 -338.755)" fill="#65617d"/>
    <path id="Path_121" data-name="Path 121" d="M397.1,319.15h82.035v68.517L397.1,389.516Z" transform="translate(-213.729 -171.621)" fill="#d4dfec"/>
    <path id="Path_122" data-name="Path 122" d="M455.964,533.65v6.008l-70.213.647-.749.014-26.686.245-.638.009-8.111.069h-.24l-49.443.458-81.162.753h-.069l-20.636.194-.222,0-91.695.841v-6.932l93.594-.615h.222l18.944-.129h.088l130.831-.864h.134l.079,0h.217l2.214-.014h.675l34.427-.231,2.034-.009.453,0Z" transform="translate(-57.22 -286.985)" opacity="0.1"/>
    <circle id="Ellipse_7" data-name="Ellipse 7" cx="23.723" cy="23.723" r="23.723" transform="translate(201.317 102.088)" fill="#fbbebe"/>
    <path id="Path_123" data-name="Path 123" d="M383.74,522.271a.573.573,0,0,1,.046-.162c.462-1.659,1.285-4.465,1.9-6.706.079-.277.152-.55.222-.809.679-2.528,2-8.449,2.736-12.141.259-1.3.462-2.311.5-2.819a76.926,76.926,0,0,1,3.06-7.963c1.1-2.7,2.311-5.648,3.194-8.134a28.372,28.372,0,0,0,1.354-4.552,2.358,2.358,0,0,0,0-.984,6.786,6.786,0,0,1-.222-1.618h0c-.106-2.865.749-7.395,2.07-9.294,1.618-2.311,2.773-10.935,2.773-10.935s2.394.347,2.773-1.631a2.849,2.849,0,0,0,.046-.647,3.43,3.43,0,0,0-.042-.513c-.411-2.884,6.8-5.953,10.861-6.614a9.083,9.083,0,0,1,1.386-.129,12.592,12.592,0,0,0,2.889-.665q.647-.2,1.387-.462c1.7-.573,3.734-1.331,5.893-2.163,8.116-3.147,17.941-7.395,17.941-7.395.069-.328.148-.642.236-.952a12.807,12.807,0,0,1,7.556-8.749h0v-.924c0-1.594-.069-3.235-.139-4.871,0-.319-.028-.638-.046-.957v-.522c0-.323-.032-.647-.051-.966l-.083-.065a7.582,7.582,0,0,1-1.8-1.941,7.052,7.052,0,0,1-.656-1.386,42.356,42.356,0,0,1-1.1-4.968l-.083-.342a38.82,38.82,0,0,0-1.849-4.89c-1.021-2.5-1.807-5.084-2.588-7.7q-.712-2.371-1.437-4.751l-.73-2.422c-.139-.462-.277-.924-.384-1.387h0a6.143,6.143,0,0,1-.12-.647h0a4.622,4.622,0,0,1,.111-2.131,14.841,14.841,0,0,1,.61-1.387,3.641,3.641,0,0,0,.231-.638h0a1.4,1.4,0,0,0,.037-.148,2.617,2.617,0,0,0,.051-.5,8.527,8.527,0,0,0-.24-1.8.032.032,0,0,1,0-.023,1.177,1.177,0,0,0-.023-.125,11.779,11.779,0,0,1-.166-1.387,13.148,13.148,0,0,1,1.6-7.2l.088-.166a11.667,11.667,0,0,1,.85-1.285h0a6.507,6.507,0,0,1,.462-.564,1.845,1.845,0,0,1-2.565-.665,1.758,1.758,0,0,1-.106-.208c-.023-.055-.042-.116-.06-.176a3.776,3.776,0,0,1,.98-3.258,8.545,8.545,0,0,1,2.653-2.172h0a1.79,1.79,0,0,1,.185-.1,7.914,7.914,0,0,1,1.22-.49h0a6.953,6.953,0,0,1,.753-.2l-1.715-.157-.693-.065a6.7,6.7,0,0,1,6.008-5.042h.5a5.419,5.419,0,0,1,.726.06,2.052,2.052,0,0,1-1.225-2,6.66,6.66,0,0,0,4.247,1.414h.176a13.874,13.874,0,0,1-.157-1.511h0a15.334,15.334,0,0,1,0-2.061,3.9,3.9,0,0,0,3.133,1.044l-.961-1.34a4.386,4.386,0,0,0,3.032.947l.222-.023a3.235,3.235,0,0,0,.55-.106h.042c-.088-.111-.166-.226-.245-.347l-.028-.055a4.473,4.473,0,0,1-.462-.966,3.051,3.051,0,0,1-.111-.4h0a4.044,4.044,0,0,1,.208-2.519c1.493,1.248,3.129,2.953,5.084,1.664s2.02-3.656,5.084-3.415a4.714,4.714,0,0,1,3.887,2.828,3.12,3.12,0,0,1,3.545-.809,3.166,3.166,0,0,1,1.793,3.184,6.386,6.386,0,0,1,3.859-.153c1.22.481,2.006,2.038,1.313,3.078a.658.658,0,0,1-.065.092c-.568.735-1.826,1.137-1.692,2.061l.194.139.6.434q3.536,2.551,6.886,5.361c1.146.961,2.366,2.117,2.445,3.619a3.994,3.994,0,0,1-.111,1.1h0c-.074.361-.176.721-.254,1.081a9.014,9.014,0,0,0-.157,2.8h0c.032.273.074.541.125.813.707,3.573,3.563,6.521,3.845,10.168v.259a8.2,8.2,0,0,1-.032,1.169,24.95,24.95,0,0,1-2.07,6.47c-.051.129-.1.259-.148.388a64.392,64.392,0,0,0-3.235,13.015,46.313,46.313,0,0,1-.924,4.663,12.352,12.352,0,0,1-2.352,4.82,7.5,7.5,0,0,1-1.553,1.387,8.637,8.637,0,0,1-1.225.652v.028c.051.282.092.564.143.846.028.148.051.3.079.462h0a.064.064,0,0,0,0,.028c.388,2.186.832,4.326,1.3,6.359l.236,1.012c5.823,2.1,6.512,6.41,6.554,8.06a4.456,4.456,0,0,1,0,.661s8.781.231,12.248,2.773a9.4,9.4,0,0,0,2.084,1.063,38.343,38.343,0,0,0,4.275,1.336c.744.194,1.52.384,2.311.569,1.387.319,2.856.629,4.275.924,3.785.763,7.349,1.387,9.156,1.849,4.312,1.091,14.175,10.547,14.175,10.547s1.155,9.539,2.311,10.93,3.235,6.281,3.235,6.281l7.644,13.592,3.235,5.717h2.08a3.536,3.536,0,0,1,1.484.97c.55.49,1.16,1.1,1.7,1.655l.887.947.555.615s3.36.083,4.27,2.741c2.736-.079,6.1.1,8.449,1.155a6.539,6.539,0,0,1,.924.5,4.011,4.011,0,0,1,1.909,2.616,3.854,3.854,0,0,1,.083.666c0,.263,0,.527,0,.786-.166,3.5-2.445,6.41-4.538,8.37l.148.263s-.069.166-.2.462c-.037.088-.083.185-.134.3h0c-.273.582-.707,1.456-1.276,2.477a29.258,29.258,0,0,1-4.423,6.087l-.134.139-26.686.245-.079-.092-5.176-6.175-2.574-3.069-.079-.1-.074.735-.25,2.449-.6,5.92-.032.3v.079l-.069.684.051-.684h-.134l-49.452.462-81.166.9v.388h-.065v-.388l-20.682.222Z" transform="translate(-243.212 -267.043)" fill="url(#linear-gradient)"/>
    <path id="Path_124" data-name="Path 124" d="M569.191,490.894s-45.986,5.546-41.6,0c1.59-2.006,2.029-7.949,1.941-14.72-.028-2.057-.1-4.187-.208-6.309-.508-10.168-1.733-20.1-1.733-20.1s40.209-18.949,35.587-3.928c-1.849,6.068-1.243,14.591.162,22.591.411,2.334.887,4.622,1.386,6.794A159.293,159.293,0,0,0,569.191,490.894Z" transform="translate(-320.423 -316.554)" fill="#fbbebe"/>
    <path id="Path_125" data-name="Path 125" d="M569.191,530.549s-45.986,5.546-41.6,0c1.59-2.006,2.029-7.949,1.941-14.72,7.011-2.995,15.931-.763,15.931-.763,9.391-1.872,15.413-1.507,19.263-.194A159.294,159.294,0,0,0,569.191,530.549Z" transform="translate(-320.423 -356.21)" opacity="0.1"/>
    <path id="Path_126" data-name="Path 126" d="M404.926,612.657v-.388l81.167-.883,49.452-.462h.139l-.051.684.069-.684h.088v-.079l.633-6.216.24-2.352.074-.735.065-.615,2.856-9.525,2.856-9.511,2.4-8.009,3.67-12.238s-2.08-4.853-3.235-6.239-2.311-10.861-2.311-10.861-9.863-9.4-14.175-10.477c-1.807-.462-5.375-1.077-9.165-1.849-1.419-.287-2.875-.592-4.275-.924-.79-.18-1.567-.37-2.311-.559a40.658,40.658,0,0,1-4.275-1.322,9.569,9.569,0,0,1-2.08-1.058c-3.4-2.491-11.91-2.773-12.238-2.773h0a.179.179,0,0,1,0-.032v-.042a4.765,4.765,0,0,0,0-.582,3.7,3.7,0,0,0-.042-.647.584.584,0,0,0-.032-.231c-.023-.166-.051-.342-.093-.527a2.288,2.288,0,0,0-.055-.245,7.95,7.95,0,0,0-.578-1.613c-.032-.074-.074-.153-.111-.227a8.44,8.44,0,0,0-.786-1.216c-.06-.078-.125-.162-.194-.24a9.047,9.047,0,0,0-1.257-1.22c-.125-.1-.254-.2-.388-.291a2.147,2.147,0,0,0-.236-.166l-.411-.268-.384-.222c-.337-.185-.693-.365-1.082-.536-.12-.055-.249-.106-.379-.157s-.333-.129-.5-.194h-.028l-.347-.139c-.263-.088-.531-.166-.813-.245l-.43-.111-.462-.106-.462-.1c-.462-.092-.957-.176-1.474-.24l-.527-.065-.541-.056-.559-.046-.795-.046-.924-.032a57.639,57.639,0,0,0-12.133,1.291,33.408,33.408,0,0,0-8.434-.778h-.4l-.462.028h-.3l-.6.055a4.434,4.434,0,0,0-.6.069c-.2.028-.407.051-.605.083l-.3.051c-.3.051-.605.106-.924.171q-.153.028-.305.069c-.4.088-.8.194-1.2.314-.2.055-.4.12-.6.19-.1.028-.2.065-.3.1l-.3.106-.291.116-.347.139c-.176.074-.347.153-.518.236-.1.042-.194.088-.286.139s-.19.092-.277.143a12.834,12.834,0,0,0-2.87,2.024l-.236.227-.231.236c-.079.079-.153.162-.227.245a11,11,0,0,0-.841,1.04c-.074.1-.143.194-.213.3a12.342,12.342,0,0,0-.795,1.35c-.06.111-.116.226-.171.337a15.114,15.114,0,0,0-.924,2.426q-.13.462-.236.924s-9.784,4.317-17.9,7.441c-2.158.832-4.192,1.585-5.893,2.154-.494.166-.957.319-1.386.462a12.344,12.344,0,0,1-2.889.665,9.088,9.088,0,0,0-1.386.129c-3.73.605-10.122,3.235-10.819,5.874a1.7,1.7,0,0,0-.046.647v.051c.462,3.235-2.773,2.773-2.773,2.773s-1.155,8.55-2.773,10.861c-1.169,1.664-1.969,5.375-2.071,8.176h0a9.067,9.067,0,0,0,.2,2.6v.065c.185.619-.259,2.311-1.012,4.478-.818,2.38-2.01,5.338-3.157,8.13a94.694,94.694,0,0,0-3.457,8.883c-.042.374-.162,1.044-.328,1.909-.675,3.522-2.172,10.228-2.912,12.941-.55,2.024-1.35,4.8-1.9,6.7a.648.648,0,0,1-.046.162l20.719-.2v.388h.065Z" transform="translate(-243.443 -357.267)" fill="#6c63ff"/>
    <path id="Path_127" data-name="Path 127" d="M445.44,607.57s26.344,13.634,35.818,12.016Z" transform="translate(-276.396 -406.656)" opacity="0.1"/>
    <path id="Path_128" data-name="Path 128" d="M561.44,595.57s25.651,8.319,34.2,9.474S561.44,595.57,561.44,595.57Z" transform="translate(-338.784 -400.202)" opacity="0.1"/>
    <path id="Path_129" data-name="Path 129" d="M565.345,526.959c-13.4,2.468-38.637,1.936-49.545,1.562,4-14.327,23.492-9.456,23.492-9.456C563.422,514.25,565.271,524.242,565.345,526.959Z" transform="translate(-314.238 -358.36)" opacity="0.1"/>
    <path id="Path_130" data-name="Path 130" d="M565.345,524.959c-13.4,2.468-38.637,1.936-49.545,1.562,4-14.327,23.492-9.456,23.492-9.456C563.422,512.25,565.271,522.242,565.345,524.959Z" transform="translate(-314.238 -357.285)" fill="#6c63ff"/>
    <path id="Path_131" data-name="Path 131" d="M776.94,671.841s15.788-2.426,16.1,4.506-8.051,11.776-8.051,11.776Z" transform="translate(-454.686 -441.001)" fill="#fbbebe"/>
    <path id="Path_132" data-name="Path 132" d="M563.657,468.423a21.717,21.717,0,0,1-2.08.8c-4.982,1.719-10.006,3.452-15.252,4.081s-10.75.074-15.326-2.542a13.3,13.3,0,0,1-1.386-.9c-.508-10.168-1.733-20.1-1.733-20.1s40.209-18.949,35.587-3.928C561.628,451.9,562.252,460.423,563.657,468.423Z" transform="translate(-320.735 -316.554)" opacity="0.1"/>
    <path id="Path_133" data-name="Path 133" d="M528.534,357.855a4.377,4.377,0,0,1-3.845-.809l.961,1.336a3.915,3.915,0,0,1-3.134-1.04,15.753,15.753,0,0,0,.148,3.582,6.711,6.711,0,0,1-4.418-1.387,2.043,2.043,0,0,0,1.22,1.992,6.627,6.627,0,0,0-7.21,4.95l2.412.222a8.536,8.536,0,0,0-4.825,2.944,3.739,3.739,0,0,0-.98,3.235c.323,1.128,1.886,1.849,2.736,1.044a12.913,12.913,0,0,0-2.819,10.533,6.687,6.687,0,0,1,.213,2.431,20.594,20.594,0,0,1-.874,2.168,6.848,6.848,0,0,0,.388,4.16l2.168,7.127c.786,2.574,1.567,5.153,2.593,7.644a37.911,37.911,0,0,1,1.849,4.857c.582,2.237.605,4.686,1.849,6.641a9.211,9.211,0,0,0,3.318,2.926c4.571,2.616,10.094,3.171,15.326,2.542s10.251-2.362,15.228-4.081A14.328,14.328,0,0,0,554,419.486c3.443-2.255,4.21-6.868,4.853-10.93a62.072,62.072,0,0,1,3.369-13.311c1.008-2.537,2.311-5.112,2.089-7.829-.282-3.61-3.138-6.535-3.845-10.085a8.78,8.78,0,0,1,.032-3.591,8.163,8.163,0,0,0,.365-2.172c-.079-1.488-1.3-2.634-2.445-3.591q-3.73-3.115-7.7-5.888c-.134-.924,1.123-1.322,1.692-2.052.8-1.031-.028-2.667-1.248-3.147a6.387,6.387,0,0,0-3.859.152,3.046,3.046,0,0,0-5.338-2.362,4.714,4.714,0,0,0-3.891-2.81c-3.064-.24-3.124,2.1-5.084,3.392s-3.577-.411-5.084-1.65A4.289,4.289,0,0,0,528.534,357.855Z" transform="translate(-310.001 -269.124)" fill="#3f3d56"/>
    <path id="Path_134" data-name="Path 134" d="M749.923,651.366s-.411.98-1.169,2.4a31.887,31.887,0,0,1-4.16,6.087l-.125.134h-.749l-26.686.245H716.4l-.078-.092L711.142,654l-1.95-2.315-.079-.1-.166-.194-.092-.111-.12-.143-3.794-4.5,1.387-5.777,2.362-9.733.06-.236.462-1.849.328-1.387,1.1-4.52,3.771-15.552,6.7,3.466,7.067,12.479,3.794,6.7h2.08c.393,0,1.294.758,2.2,1.631.324.31.647.638.924.924.823.85,1.474,1.581,1.474,1.581s3.369.074,4.275,2.727a3.229,3.229,0,0,1,.116.393,18.626,18.626,0,0,0,1.169,3.032c.6,1.3,1.345,2.773,2.1,4.247,1.41,2.7,2.842,5.278,3.369,6.212l.065.116Z" transform="translate(-415.963 -406.661)" fill="#6c63ff"/>
    <path id="Path_135" data-name="Path 135" d="M561.8,650.911l-.046.661v.046l-.079,1.063-.615,8.555-.744,10.306-.213,2.9-.462,6.212v.079l-49.452.462-81.153.878v.388h-.065v-.518l.208-6.637.4-12.969.342-11,.032-1.1a4.866,4.866,0,0,1,5.278-4.7c2.181.185,5.015.411,8.4.652l1.387.1c19.564,1.359,55.719,3.115,92.2.924.767-.042,1.539-.088,2.311-.143,5.657-.356,11.309-.813,16.906-1.387a4.867,4.867,0,0,1,5.361,5.19Z" transform="translate(-267.538 -427.073)" opacity="0.1"/>
    <path id="Path_136" data-name="Path 136" d="M429.08,684.631v-.388l81.167-.883L559.7,682.9h.139v-.079l.462-6.212.2-2.773.758-10.45.6-8.273v-.2a4.9,4.9,0,0,0-.051-1.142.133.133,0,0,0,0-.046,4.8,4.8,0,0,0-.924-2.145,4.871,4.871,0,0,0-4.354-1.849c-5.6.573-11.249,1.031-16.906,1.386-.772.055-1.544.1-2.311.143-36.484,2.168-72.639.411-92.2-.924l-1.386-.1c-3.388-.24-6.221-.462-8.4-.652a4.871,4.871,0,0,0-5.195,3.942,5.085,5.085,0,0,0-.083.758l-.314,10.242-.43,12.973-.2,6.637v.518Z" transform="translate(-267.597 -429.24)" fill="#3f3d56"/>
    <path id="Path_137" data-name="Path 137" d="M562.012,660.361l-.569,7.085-.846,10.561-.213,2.644-.462,5.92-.028.3v.079h0l-.069.684.051-.684h-.134l-49.452.462-81.18.878v-.129l.227-6.637.462-12.969.3-8.62a2.939,2.939,0,0,1,1.414-2.426,2.89,2.89,0,0,1,1.747-.416c.971.079,2.163.171,3.554.273,2.26.166,5.047.36,8.291.564,6.008.379,13.546.786,22.184,1.118,24.033.924,56.477,1.234,87.295-1.465,1.387-.12,2.819-.254,4.22-.388a2.894,2.894,0,0,1,1.608.3,2.386,2.386,0,0,1,.4.25,2.837,2.837,0,0,1,.924,1.137,1.638,1.638,0,0,1,.116.282A2.9,2.9,0,0,1,562.012,660.361Z" transform="translate(-267.613 -433.283)" opacity="0.1"/>
    <path id="Path_138" data-name="Path 138" d="M352.071,677.87v1.474a2.833,2.833,0,0,1-1.618,2.561l-18.533.356a2.828,2.828,0,0,1-1.65-2.574V678.3Z" transform="translate(-214.454 -444.465)" opacity="0.1"/>
    <path id="Path_139" data-name="Path 139" d="M270.5,510.907l-24.148.462v-4.007L270.5,506.9Z" transform="translate(-132.651 -272.598)" fill="#3f3d56"/>
    <path id="Path_140" data-name="Path 140" d="M270.5,510.907l-24.148.462v-4.007L270.5,506.9Z" transform="translate(-132.651 -272.598)" opacity="0.1"/>
    <path id="Path_141" data-name="Path 141" d="M272.5,510.907l-24.148.462v-4.007L272.5,506.9Z" transform="translate(-133.727 -272.598)" fill="#3f3d56"/>
    <g id="Group_14" data-name="Group 14" transform="translate(198.107 85.21)" opacity="0.1">
      <path id="Path_142" data-name="Path 142" d="M551.852,359.226a4.507,4.507,0,0,1-.874-2.006,4.387,4.387,0,0,0,.194,2.126A4.144,4.144,0,0,0,551.852,359.226Z" transform="translate(-531.237 -357.22)"/>
      <path id="Path_143" data-name="Path 143" d="M540.031,366.21a16.272,16.272,0,0,1-.171-1.71v1.715Z" transform="translate(-525.285 -361.135)"/>
      <path id="Path_144" data-name="Path 144" d="M621.693,397.052a8.473,8.473,0,0,1,.166-1.225,8.316,8.316,0,0,0,.37-2.168,2.834,2.834,0,0,0-.074-.49c-.078.425-.2.85-.3,1.271a8.839,8.839,0,0,0-.166,2.611Z" transform="translate(-569.28 -376.555)"/>
      <path id="Path_145" data-name="Path 145" d="M600.918,367.943l.5.365a9.1,9.1,0,0,0,1.188-1.026,1.7,1.7,0,0,0,.176-1.682,1.386,1.386,0,0,1-.176.3C602.041,366.626,600.784,367.028,600.918,367.943Z" transform="translate(-558.119 -361.727)"/>
      <path id="Path_146" data-name="Path 146" d="M518.292,380.29a5.689,5.689,0,0,0-.4,1.054,8.393,8.393,0,0,1,2.311-.874Z" transform="translate(-513.469 -369.628)"/>
      <path id="Path_147" data-name="Path 147" d="M531.534,368.748a6.851,6.851,0,0,1-.869-.568,1.963,1.963,0,0,0,.042.545,5.474,5.474,0,0,1,.827.023Z" transform="translate(-520.338 -363.115)"/>
      <path id="Path_148" data-name="Path 148" d="M564.707,428.33c-.19,2.242-1.234,4.4-2.08,6.526a62.042,62.042,0,0,0-3.369,13.315c-.642,4.063-1.387,8.675-4.853,10.926a13.864,13.864,0,0,1-3.157,1.387c-4.982,1.724-10.006,3.452-15.252,4.081s-10.75.079-15.326-2.537a9.244,9.244,0,0,1-3.318-2.925c-1.234-1.955-1.257-4.4-1.849-6.641a37.985,37.985,0,0,0-1.849-4.862c-1.021-2.487-1.807-5.084-2.588-7.64q-1.086-3.563-2.168-7.131a13.326,13.326,0,0,1-.527-2.2,8.284,8.284,0,0,0,.527,3.582q1.081,3.573,2.168,7.131c.781,2.574,1.567,5.153,2.588,7.64a37.977,37.977,0,0,1,1.849,4.862c.582,2.237.605,4.686,1.849,6.641a9.244,9.244,0,0,0,3.318,2.926c4.575,2.616,10.094,3.166,15.326,2.537s10.251-2.357,15.252-4.081a13.861,13.861,0,0,0,3.157-1.386c3.443-2.251,4.21-6.863,4.853-10.926a62.042,62.042,0,0,1,3.369-13.315c1.008-2.533,2.311-5.107,2.089-7.829C564.716,428.385,564.707,428.358,564.707,428.33Z" transform="translate(-508.324 -395.465)"/>
      <path id="Path_149" data-name="Path 149" d="M510.151,419.792v-.051a6.471,6.471,0,0,0-.213-2.426,12.284,12.284,0,0,1-.18-1.534,12.639,12.639,0,0,0,.18,2.921C510.012,419.061,510.1,419.427,510.151,419.792Z" transform="translate(-509.086 -388.715)"/>
      <path id="Path_150" data-name="Path 150" d="M511.794,396.821a12.8,12.8,0,0,1,1.206-1.7c-.846.809-2.408.088-2.736-1.035a2.693,2.693,0,0,0,0,1.387,2.029,2.029,0,0,0,1.53,1.345Z" transform="translate(-509.319 -377.05)"/>
    </g>
    <path id="Path_151" data-name="Path 151" d="M762.682,656.57s1.465,5.315,0,9.937S762.682,656.57,762.682,656.57Z" transform="translate(-446.668 -433.009)" opacity="0.1"/>
    <path id="Path_152" data-name="Path 152" d="M775.5,668.3s.615,6.748-.772,7.945S775.5,668.3,775.5,668.3Z" transform="translate(-453.247 -439.318)" opacity="0.1"/>
    <line id="Line_1" data-name="Line 1" y1="0.462" x2="46.961" transform="translate(91.811 158.025)" fill="none" stroke="#6c63ff" stroke-miterlimit="10" stroke-width="2"/>
    <line id="Line_2" data-name="Line 2" y1="0.458" x2="46.961" transform="translate(91.811 163.793)" fill="none" stroke="#6c63ff" stroke-miterlimit="10" stroke-width="2"/>
    <line id="Line_3" data-name="Line 3" y1="0.462" x2="46.961" transform="translate(91.811 169.556)" fill="none" stroke="#6c63ff" stroke-miterlimit="10" stroke-width="2"/>
  </g>
</svg>
